# xmcd
#
# Track frame offsets:
#	150
#	9091
#	18475
#	27972
#	39339
#	50655
#	62699
#	71984
#	81411
#	90999
#	99683
#	108701
#	119299
#	128376
#	140440
#	152569
#	161337
#	171008
#	181617
#	191168
#	202044
#	212879
#	223921
#	234055
#	244225
#	254549
#	264725
#	274763
#
# Disc length: 3815 seconds
#
# Revision: 1
# Processed by: cddbd v1.5.2PL0 Copyright (c) Steve Scherf et al.
# Submitted via: audiograbber 1.83.01
#
DISCID=8c0ee51c
DTITLE=Domino Fats - Out of New Orleans - CD3
DYEAR=1993
DGENRE=Rock'n Roll
TTITLE0=Goin' Back Home 1963
TTITLE1=You left me (Master) 1959
TTITLE2=Yo left me (Alternate) 1993
TTITLE3=44 1958
TTITLE4=Barrel House (Instrumental) 1958
TTITLE5=Little School Girl 1954
TTITLE6=If you Need me 1956
TTITLE7=You Done me Wrong 1954
TTITLE8=Thinking of you 1954
TTITLE9=Baby Please 1954
TTITLE10=Where did you Stay 1954
TTITLE11=You can pack your Suitcase 1954
TTITLE12=I Lived my Life 1954
TTITLE13=Little Mama 1963
TTITLE14=I Know 1954
TTITLE15=Love me 1954
TTITLE16=Don't you Hear me Calling you 1954
TTITLE17=Don't you Know 1955
TTITLE18=Helping Hand 1955
TTITLE19=Help me 1970
TTITLE20=All by Myself 1955
TTITLE21=Ain't it a Shame 1955
TTITLE22=Oh Ba-a-by 1963
TTITLE23=La-La 1955
TTITLE24=Blue Monday 1956
TTITLE25=Troubles of my Own 1955
TTITLE26=Whats Wrong 1963
TTITLE27=Poor me 1955
EXTD=
EXTT0=
EXTT1=
EXTT2=
EXTT3=
EXTT4=
EXTT5=
EXTT6=
EXTT7=
EXTT8=
EXTT9=
EXTT10=
EXTT11=
EXTT12=
EXTT13=
EXTT14=
EXTT15=
EXTT16=
EXTT17=
EXTT18=
EXTT19=
EXTT20=
EXTT21=
EXTT22=
EXTT23=
EXTT24=
EXTT25=
EXTT26=
EXTT27=
PLAYORDER=
